<svg width="96" height="96" xmlns="http://www.w3.org/2000/svg" xmlns:xlink="http://www.w3.org/1999/xlink"><defs><path id="a" d="M0 0h96v96H0z"/></defs><g fill="none" fill-rule="evenodd"><mask id="b" fill="#ffffff"><use xlink:href="#a"/></mask><path d="M20.1 82h55.8c-16.21 13.334-39.59 13.334-55.8 0zM14 20.1v55.8C.666 59.689.666 36.311 14 20.1zM75.9 14H20.1C36.31.667 59.69.667 75.9 14zm6.1 6.1c13.334 16.211 13.334 39.589 0 55.8V20.1zM78 22v56H50l28-56zm-57.53-4h55.06L48 73.06 20.47 18zM18 22l28 56H18V22zM48 0C21.49 0 0 21.49 0 48s21.49 48 48 48 48-21.49 48-48S74.51 0 48 0z" fill="#ffffff" mask="url(#b)"/></g></svg>