<svg width="32" height="32" fill="none" xmlns="http://www.w3.org/2000/svg"><path fill="#72085C" d="M0 0h32v16H0z"/><path fill="#fff" d="M0 16h16v16H0z"/><path fill="#ECC9DE" d="M16 16h16v16H16z"/><path fill="#F5353D" d="M24 24h8v8h-8z"/><path fill="#000" d="M24 16h8v8h-8z"/><path d="M4 1h24v-2H4v2zm27 3v24h2V4h-2zm-3 27H4v2h24v-2zM1 28V4h-2v24h2zm3 3a3 3 0 01-3-3h-2a5 5 0 005 5v-2zm27-3a3 3 0 01-3 3v2a5 5 0 005-5h-2zM28 1a3 3 0 013 3h2a5 5 0 00-5-5v2zM4-1a5 5 0 00-5 5h2a3 3 0 013-3v-2z" fill="#000" fill-opacity=".12"/></svg>
