<svg width="32" height="32" viewBox="0 0 32 32" fill="none" xmlns="http://www.w3.org/2000/svg">
<rect width="32" height="16" fill="#0336FF"/>
<rect y="16" width="16" height="16" fill="#FFDE03"/>
<rect opacity="0.25" x="16" y="16" width="16" height="16" fill="#FFDE03"/>
<rect x="24" y="24" width="8" height="8" fill="#FF0266"/>
<rect x="24" y="16" width="8" height="8" fill="white"/>
<path d="M4 1H28V-1H4V1ZM31 4V28H33V4H31ZM28 31H4V33H28V31ZM1 28V4H-1V28H1ZM4 31C2.34315 31 1 29.6569 1 28H-1C-1 30.7614 1.23858 33 4 33V31ZM31 28C31 29.6569 29.6569 31 28 31V33C30.7614 33 33 30.7614 33 28H31ZM28 1C29.6569 1 31 2.34315 31 4H33C33 1.23858 30.7614 -1 28 -1V1ZM4 -1C1.23858 -1 -1 1.23858 -1 4H1C1 2.34315 2.34315 1 4 1V-1Z" fill="black" fill-opacity="0.12"/>
</svg>
